<?xml version="1.0" standalone="no"?>
<!DOCTYPE svg PUBLIC "-//W3C//DTD SVG 20010904//EN"
 "http://www.w3.org/TR/2001/REC-SVG-20010904/DTD/svg10.dtd">
<svg version="1.0" xmlns="http://www.w3.org/2000/svg"
 width="4167.000000pt" height="4167.000000pt" viewBox="0 0 4167.000000 4167.000000"
 preserveAspectRatio="xMidYMid meet">

<g transform="translate(0.000000,4167.000000) scale(0.100000,-0.100000)"
fill="#000000" stroke="none">
<path d="M13770 30899 c-184 -16 -453 -90 -1210 -334 -217 -70 -514 -165 -659
-211 l-265 -84 -72 20 c-39 10 -231 67 -425 125 -632 190 -888 243 -1205 252
l-191 6 -90 -184 c-251 -511 -345 -856 -421 -1538 l-27 -244 -250 -185 c-570
-422 -1363 -1031 -1810 -1390 -308 -248 -460 -377 -582 -495 -132 -128 -146
-158 -151 -322 -3 -106 1 -146 33 -325 38 -211 186 -985 228 -1192 l24 -117
-50 -48 c-238 -231 -1638 -1746 -1745 -1888 -101 -135 -134 -258 -114 -422 48
-380 287 -1283 627 -2368 184 -586 372 -1137 461 -1349 72 -171 224 -291 632
-495 264 -132 801 -360 1079 -457 46 -16 83 -35 83 -41 0 -28 -221 -606 -525
-1373 -75 -190 -182 -462 -237 -605 -98 -255 -100 -261 -94 -322 19 -185 197
-632 468 -1173 153 -306 285 -540 347 -612 171 -200 1262 -639 2666 -1074
1110 -344 2008 -558 2395 -571 l155 -5 705 172 c845 205 1123 274 1716 426
l452 116 308 -107 c1193 -413 3664 -1214 4561 -1479 375 -110 688 -164 1003
-173 254 -7 319 0 750 82 724 139 4161 836 4340 881 19 5 -7 15 -105 41 -269
71 -710 231 -1070 388 -164 72 -554 271 -685 350 -419 253 -885 601 -1060 792
l-62 68 349 7 c1135 22 2029 90 3583 273 256 31 697 82 980 115 804 93 893
108 1077 181 344 136 3462 1529 4508 2014 549 254 653 317 864 520 133 128
199 222 301 424 521 1043 1042 2635 1229 3756 48 289 91 631 91 725 l0 30
-112 -84 c-392 -290 -1063 -687 -2043 -1206 -534 -283 -827 -427 -952 -469
-471 -157 -1587 -423 -2083 -495 -188 -27 -721 -96 -742 -96 -7 0 23 18 67 39
238 112 803 444 1320 773 512 326 1088 705 1170 771 206 165 296 293 582 827
263 489 1079 2099 1151 2270 99 234 179 508 247 845 41 204 106 587 101 593
-2 1 -727 -359 -1612 -801 -1280 -639 -1626 -808 -1694 -827 -47 -12 -173 -39
-280 -60 -107 -21 -350 -68 -540 -104 -838 -162 -1653 -284 -2220 -331 -205
-17 -548 -31 -539 -21 21 23 595 275 1164 511 315 131 483 215 550 277 125
114 349 421 483 663 301 540 769 1916 937 2748 35 173 54 327 41 327 -4 0
-145 -73 -314 -162 -1149 -604 -2042 -1019 -2580 -1198 -264 -87 -382 -111
-587 -117 -536 -17 -2678 96 -3870 203 -292 26 -349 36 -429 79 -97 52 -1218
791 -1596 1053 -351 244 -720 522 -720 543 0 4 9 45 20 91 62 261 85 537 77
898 -6 246 -29 575 -41 587 -14 14 -266 34 -492 40 -367 9 -584 -22 -776 -110
-58 -27 -78 -32 -78 -21 0 8 -29 102 -65 210 -68 206 -129 348 -161 375 -28
24 -386 138 -798 254 -366 104 -411 106 -619 39 -78 -25 -172 -59 -209 -75
l-67 -29 -178 30 c-624 104 -1395 184 -2213 230 -449 26 -1461 22 -1635 -5
-29 -5 -35 1 -130 131 -55 75 -117 151 -138 169 -62 53 -144 68 -307 54z
m-3422 -895 c220 -49 457 -140 742 -285 675 -344 1292 -867 1492 -1262 21 -43
38 -82 36 -87 -2 -5 -61 34 -133 87 -664 484 -1216 815 -1637 982 -174 69
-439 140 -473 128 -17 -7 -125 -281 -195 -497 l-57 -175 -69 -12 c-38 -6 -98
-15 -133 -19 l-64 -7 7 114 c21 346 99 737 198 993 l30 78 72 -6 c39 -4 122
-18 184 -32z m10934 -680 c37 -6 37 -6 50 -78 20 -111 15 -340 -10 -471 -23
-115 -61 -239 -106 -339 -28 -63 -96 -179 -102 -174 -1 2 8 48 22 101 56 221
66 388 37 609 -20 152 -9 144 -172 135 -167 -9 -344 -51 -520 -123 -46 -20
-87 -31 -91 -27 -4 4 -18 57 -31 117 -22 106 -22 109 -3 123 46 34 306 100
479 122 82 10 394 13 447 5z m-5707 -1808 c236 -34 605 -90 825 -127 364 -61
558 -101 955 -198 95 -24 121 -26 190 -20 354 33 616 35 995 5 202 -15 224
-21 330 -91 66 -43 776 -662 1300 -1134 682 -613 893 -834 968 -1014 22 -53
26 -81 30 -194 l4 -131 -38 -12 c-57 -18 -287 -24 -390 -11 -117 16 -227 46
-288 79 -46 25 -54 35 -111 147 -184 362 -465 748 -592 814 l-22 11 18 -43
c31 -72 108 -315 136 -432 51 -210 70 -410 43 -448 -27 -35 -253 -55 -738 -64
-497 -9 -617 4 -1015 103 -182 46 -321 85 -472 135 l-121 40 -17 77 c-91 423
-240 790 -353 871 l-27 19 -1 -207 c0 -290 -42 -550 -114 -706 -48 -106 -27
-100 -374 -100 -319 1 -412 10 -559 55 -66 20 -70 24 -274 228 -401 400 -693
782 -815 1065 -22 51 -44 101 -49 112 -13 29 -4 -683 11 -775 17 -113 48 -227
76 -282 22 -44 23 -49 7 -44 -10 3 -117 33 -238 66 -767 213 -1282 450 -1722
793 l-103 79 19 27 c62 86 401 364 676 553 383 263 1075 655 1305 739 153 56
240 58 545 15z m-2273 -2055 l797 -522 148 -19 c81 -10 297 -33 478 -50 555
-52 643 -66 812 -132 105 -40 370 -171 456 -225 l49 -30 -184 -98 c-100 -54
-260 -140 -353 -191 -172 -94 -230 -115 -401 -148 l-72 -13 -549 356 c-413
267 -740 490 -1312 895 -418 297 -761 544 -761 550 0 5 12 48 26 94 25 82 26
83 47 69 12 -8 381 -249 819 -536z m393 -1120 c720 -539 1065 -808 1065 -833
0 -4 -53 -47 -117 -95 -336 -247 -471 -357 -538 -443 -60 -76 -418 -820 -402
-836 2 -2 46 46 97 107 184 219 481 498 685 644 99 71 214 139 221 132 3 -3
-23 -45 -58 -94 -125 -172 -266 -381 -412 -608 -82 -126 -193 -297 -247 -380
-54 -82 -113 -181 -131 -220 l-33 -70 -3 -253 -4 -252 -301 -275 c-166 -151
-305 -275 -309 -275 -6 0 -165 243 -343 525 -140 222 -395 635 -395 640 0 5
-223 377 -272 455 -96 149 -112 210 -124 450 -8 161 9 345 36 407 29 66 221
399 348 603 239 385 702 1054 725 1048 7 -2 237 -171 512 -377z m4053 65 c607
-363 768 -440 1011 -483 88 -16 113 -16 405 1 334 19 600 38 789 57 90 9 126
17 149 33 60 40 127 197 164 379 9 45 18 88 21 96 13 46 304 -545 626 -1274
112 -254 301 -693 338 -787 l18 -47 -46 29 c-173 110 -526 172 -1058 186 -240
7 -582 -6 -734 -27 -42 -6 -117 -24 -168 -40 -131 -42 -385 -99 -442 -99 -91
0 -137 51 -353 390 -104 163 -322 518 -632 1030 -32 52 -55 86 -52 75 15 -57
408 -1455 417 -1481 14 -44 575 -634 672 -708 271 -203 689 -398 1007 -470
l105 -23 8 -64 c14 -103 13 -506 -1 -573 -32 -158 -55 -219 -94 -262 -66 -72
-102 -79 -378 -78 -325 2 -975 49 -1595 115 l-290 32 -310 -17 c-595 -33 -860
-61 -1137 -121 -477 -104 -698 -180 -772 -267 l-35 -41 -68 33 c-129 63 -273
236 -384 459 -79 160 -195 531 -165 531 6 0 317 11 691 25 713 26 782 32 885
78 l55 24 -75 7 c-41 3 -419 25 -840 47 -421 22 -766 42 -768 43 -1 2 -9 61
-18 132 -14 112 -16 277 -3 288 2 2 357 -41 789 -96 674 -85 800 -98 890 -94
58 2 123 11 145 19 l40 14 -40 11 c-22 6 -420 88 -885 182 -465 94 -850 173
-857 175 -13 4 127 367 144 372 5 2 290 -67 634 -153 579 -145 632 -156 739
-161 63 -3 126 -1 139 4 28 11 92 -13 -786 294 -354 123 -643 228 -643 234 0
14 157 409 193 485 21 46 53 87 106 140 124 124 768 583 1255 895 87 57 151
106 175 134 47 58 239 233 366 335 103 82 270 196 287 196 5 0 170 -96 366
-214z m3384 -620 c117 -35 232 -69 254 -75 l41 -11 31 -118 c70 -266 106 -494
100 -620 -4 -77 -11 -102 -57 -214 -29 -71 -57 -128 -61 -128 -4 0 -96 210
-205 468 -109 257 -226 533 -261 615 -34 81 -61 147 -59 147 2 0 100 -29 217
-64z m254 -2023 c83 -86 153 -183 165 -228 13 -45 6 -446 -11 -695 -19 -267
-65 -522 -110 -609 -38 -75 -95 -107 -163 -91 -24 5 -153 21 -287 35 -332 35
-354 39 -400 85 -48 48 -75 120 -111 295 -41 199 -37 346 14 615 l22 115 66 7
c147 14 299 73 415 161 80 61 184 172 263 280 35 48 68 87 73 87 5 0 34 -26
64 -57z m-3216 -2013 c1348 -46 2484 -113 2808 -165 103 -17 134 -29 174 -72
59 -62 71 -139 39 -268 -20 -83 -2 -80 -214 -40 -81 15 -150 26 -152 23 -3 -3
22 -61 54 -129 70 -146 103 -240 103 -289 0 -64 -237 -757 -420 -1230 -262
-677 -602 -1424 -790 -1737 -155 -257 -279 -400 -476 -548 -143 -106 -397
-273 -555 -364 l-125 -71 -37 147 c-72 288 -171 578 -295 867 -81 189 -128
272 -162 290 -15 7 -160 60 -322 116 -356 124 -505 181 -587 226 -58 32 -78
55 -330 377 -717 913 -1111 1454 -1220 1675 l-36 72 -1 283 c-1 287 12 457 40
525 24 60 82 76 559 156 535 89 906 134 1320 159 118 8 350 6 625 -3z"/>
</g>
</svg>
